<svg width="153" height="44" viewBox="0 0 153 44" fill="none" xmlns="http://www.w3.org/2000/svg">
<path d="M34.2117 44.0001C33.2159 44.0001 32.4727 43.2248 32.4727 42.2361C32.4727 41.2581 33.2017 40.4614 34.2366 40.4614C34.8661 40.4614 35.2467 40.6819 35.5739 40.9949L35.1862 41.4394C34.9124 41.1869 34.6207 41.0127 34.2295 41.0127C33.5751 41.0127 33.1021 41.5497 33.1021 42.2254C33.1021 42.9011 33.5751 43.4453 34.2295 43.4453C34.6492 43.4453 34.9195 43.2746 35.2111 43.0007L35.5987 43.3919C35.2431 43.7653 34.8519 44.0001 34.2117 44.0001Z" fill="#706F6F"/>
<path d="M39.3081 40.5186V43.9398H38.707V40.5186H39.3081Z" fill="#706F6F"/>
<path d="M44.8554 43.9398L44.0161 42.7484H43.2622V43.9398H42.6611V40.5186H44.1868C44.9728 40.5186 45.4565 40.9347 45.4565 41.6033C45.4565 42.1687 45.1186 42.5137 44.6421 42.6453L45.5667 43.9398H44.8554ZM44.137 41.0662H43.2622V42.215H44.1406C44.5709 42.215 44.8448 41.9909 44.8448 41.6388C44.8448 41.2618 44.5816 41.0662 44.137 41.0662Z" fill="#706F6F"/>
<path d="M51.5103 42.4604C51.5103 43.4811 50.9341 43.9932 50.0415 43.9932C49.1524 43.9932 48.5869 43.481 48.5869 42.4888V40.5186H49.1879V42.4639C49.1879 43.1005 49.5151 43.4419 50.0522 43.4419C50.5856 43.4419 50.9128 43.1183 50.9128 42.4888V40.5186H51.5138V42.4604H51.5103Z" fill="#706F6F"/>
<path d="M56.9736 43.9398L56.1343 42.7484H55.3803V43.9398H54.7793V40.5186H56.305C57.091 40.5186 57.5746 40.9347 57.5746 41.6033C57.5746 42.1687 57.2368 42.5137 56.7602 42.6453L57.6849 43.9398H56.9736ZM56.2552 41.0662H55.3803V42.215H56.2588C56.6891 42.215 56.9629 41.9909 56.9629 41.6388C56.9629 41.2618 56.6998 41.0662 56.2552 41.0662Z" fill="#706F6F"/>
<path d="M62.3752 44.0001C61.3048 44.0001 60.6006 43.239 60.6006 42.2361C60.6006 41.2723 61.3332 40.4614 62.3646 40.4614C62.962 40.4614 63.3284 40.6286 63.6804 40.9273L63.2999 41.3825C63.0367 41.1585 62.7771 41.0162 62.3432 41.0162C61.7137 41.0162 61.2336 41.5639 61.2336 42.229C61.2336 42.9367 61.6995 43.4559 62.3966 43.4559C62.7202 43.4559 63.0118 43.3528 63.2217 43.1963V42.5562H62.3468V42.0334H63.8014V43.4702C63.4635 43.7547 62.9798 44.0001 62.3752 44.0001Z" fill="#706F6F"/>
<path d="M67.6606 40.5186V43.9398H67.0596V40.5186H67.6606Z" fill="#706F6F"/>
<path d="M74.2884 43.9403H73.6518L73.3033 43.1152H71.6851L71.333 43.9403H70.7178L72.2221 40.4941H72.7805L74.2884 43.9403ZM72.496 41.2161L71.9092 42.5818H73.0863L72.496 41.2161Z" fill="#706F6F"/>
<path d="M82.5039 42.8409H81.8247V43.9398H81.2236V40.5186H82.5715C83.3682 40.5186 83.8696 40.9667 83.8696 41.6673C83.8732 42.439 83.2543 42.8409 82.5039 42.8409ZM82.5217 41.0662H81.8247V42.2968H82.5217C82.9769 42.2968 83.2615 42.0478 83.2615 41.6815C83.2615 41.2761 82.9734 41.0662 82.5217 41.0662Z" fill="#706F6F"/>
<path d="M86.9277 40.5186H87.5288V43.3921H89.3283V43.9398H86.9277V40.5186Z" fill="#706F6F"/>
<path d="M95.6693 43.9399H95.0327L94.6842 43.1148H93.066L92.7139 43.9399H92.0986L93.603 40.4938H94.1614L95.6693 43.9399ZM93.8733 41.2157L93.2865 42.5849H94.4637L93.8733 41.2157ZM93.6421 40.2377L94.1614 39.4375L94.6984 39.6758L94.1009 40.2377H93.6421Z" fill="#706F6F"/>
<path d="M100.016 41.9552C100.738 42.133 101.115 42.3891 101.115 42.9617C101.115 43.6054 100.61 43.9895 99.8949 43.9895C99.3721 43.9895 98.8777 43.8081 98.4688 43.4418L98.8315 43.0114C99.1587 43.296 99.4859 43.456 99.9127 43.456C100.283 43.456 100.517 43.2853 100.517 43.0221C100.517 42.7732 100.379 42.6416 99.7455 42.4958C99.0164 42.3179 98.6075 42.1046 98.6075 41.468C98.6075 40.8705 99.0947 40.4722 99.774 40.4722C100.272 40.4722 100.667 40.6251 101.015 40.9025L100.692 41.3577C100.382 41.1266 100.076 41.0056 99.7633 41.0056C99.4112 41.0056 99.2049 41.187 99.2049 41.4146C99.2049 41.6814 99.3614 41.7987 100.016 41.9552Z" fill="#706F6F"/>
<path d="M105.639 43.9398H105.034V41.0769H103.949V40.5186H106.723V41.0769H105.639V43.9398Z" fill="#706F6F"/>
<path d="M110.436 40.5186V43.9398H109.835V40.5186H110.436Z" fill="#706F6F"/>
<path d="M115.38 44.0001C114.384 44.0001 113.641 43.2248 113.641 42.2361C113.641 41.2581 114.37 40.4614 115.405 40.4614C116.034 40.4614 116.415 40.6819 116.742 40.9949L116.354 41.4394C116.08 41.1869 115.789 41.0127 115.397 41.0127C114.743 41.0127 114.27 41.5497 114.27 42.2254C114.27 42.9011 114.743 43.4453 115.397 43.4453C115.817 43.4453 116.087 43.2746 116.379 43.0007L116.767 43.3919C116.411 43.7653 116.02 44.0001 115.38 44.0001Z" fill="#706F6F"/>
<path d="M123.112 43.9403H122.475L122.127 43.1152H120.508L120.156 43.9403H119.541L121.045 40.4941H121.604L123.112 43.9403ZM121.319 41.2161L120.732 42.5853H121.91L121.319 41.2161Z" fill="#706F6F"/>
<path d="M9.74814 31.7669L8.54607 35.0957H0L0.00355446 34.8895H0.263174C0.985127 34.8895 1.56838 34.3098 1.5826 33.5949V22.1717C1.56838 21.4533 0.985127 20.8772 0.263174 20.8772H0.00355446L0 20.6709H4.50954L4.50598 20.8772H4.24636C3.52441 20.8772 2.94116 21.4569 2.92693 22.1717V34.4662H5.88231C8.06595 34.4662 8.90527 33.3353 9.54186 31.7669H9.74814Z" fill="#706F6F"/>
<path d="M24.0554 22.7305V22.9367H23.7496C23.2161 22.9367 22.7822 23.3066 22.7574 23.8045V30.7431C22.7574 33.6202 20.8013 35.3878 17.6183 35.3878C14.4353 35.3878 12.4651 33.6344 12.4651 30.7751V23.833C12.4544 23.3208 12.017 22.9403 11.4728 22.9403H11.167V22.734H15.0791V22.9403H14.7732C14.2326 22.9403 13.7916 23.3208 13.781 23.833V30.5155C13.781 33.1899 15.232 34.8294 17.6005 34.8294C20.2003 34.8294 21.7971 33.2788 21.8042 30.7466V23.8223C21.7865 23.3173 21.349 22.9439 20.812 22.9439H20.5061V22.7376L24.0554 22.7305Z" fill="#706F6F"/>
<path d="M25.9092 35.0961L25.9127 34.8899H26.1866C26.9548 34.8899 27.57 34.392 27.5878 33.7731V24.0535C27.5736 23.4346 26.9548 22.9367 26.1866 22.9367H25.9127L25.9092 22.7305H30.5788V22.9367H30.3014C29.551 22.9367 28.9393 23.4169 28.9037 24.0179V33.7909C28.9286 34.4026 29.5438 34.8899 30.3014 34.8899H30.5752L30.5788 35.0961H25.9092Z" fill="#706F6F"/>
<path d="M43.7194 32.1514L42.6063 35.0961H32.7266L32.7301 34.9041L40.412 23.3315H34.27C33.6583 23.3528 33.26 23.8187 33.26 24.3913V24.7078L33.0395 24.7114V23.2852V22.9118V22.3926C33.3952 22.5348 34.5154 22.6949 35.3334 22.7127H40.0706C40.9561 22.7127 42.1404 22.574 42.4 22.4459V22.6237L34.5688 34.4808H40.2306C42.208 34.4488 42.9157 33.4993 43.4954 32.1549L43.7194 32.1514Z" fill="#706F6F"/>
<path d="M56.2488 33.6913C56.6685 34.5378 57.2909 34.8934 57.8385 34.8934H57.995V35.0997H53.7629V34.897H53.9265C54.3959 34.897 54.9258 34.4488 54.6556 33.6593L53.5282 30.9173H48.3145L47.18 33.6024C46.8634 34.4275 47.4076 34.897 47.8877 34.897H48.0513V35.0997H44.125V34.8934H44.2886C44.8363 34.8934 45.48 34.5413 45.9032 33.702L50.1709 24.5656C50.1638 24.5656 50.9213 22.983 50.964 22.4424H51.1596L56.2488 33.6913ZM53.2757 30.295L50.9604 24.6545L48.5776 30.295H53.2757Z" fill="#706F6F"/>
<path d="M77.6825 29.0818L77.4299 32.3181C76.3452 34.0928 74.4995 35.3873 71.6401 35.3873C67.3297 35.366 64.2783 32.4177 64.2783 27.8655C64.2783 23.3915 67.2266 20.3828 71.761 20.3828C73.7811 20.3828 75.4277 20.9803 76.6369 21.7734L77.053 24.6861H76.8823C76.2563 22.2784 74.2363 21.0016 71.7575 21.0016C68.1335 21.0016 65.8254 23.7436 65.8254 27.8442C65.8254 31.9874 68.1761 34.6867 71.6401 34.7721C74.567 34.7614 77.0423 33.3068 77.5117 29.0854L77.6825 29.0818Z" fill="#706F6F"/>
<path d="M79.8418 35.0961L79.8454 34.8899H80.1192C80.8874 34.8899 81.5026 34.392 81.5204 33.7731V24.0535C81.5062 23.4346 80.8874 22.9367 80.1192 22.9367H79.8454L79.8418 22.7305H84.5114V22.9367H84.234C83.4836 22.9367 82.8719 23.4169 82.8363 24.0179V33.7909C82.8612 34.4026 83.4765 34.8899 84.234 34.8899H84.5078L84.5114 35.0961H79.8418Z" fill="#706F6F"/>
<path d="M91.9302 22.7305C94.5299 22.7305 96.1196 23.9859 96.1196 26.0664C96.1196 27.8126 94.7646 29.2743 92.9153 29.4592C93.3634 29.6619 94.0605 30.4479 94.5015 31.0738C94.4979 31.0738 95.451 32.3648 96.3046 33.3215C97.1439 34.2604 97.72 34.8792 98.8652 34.8863V35.0926H98.2144C95.9347 35.0926 95.0349 34.0541 94.3877 33.2788C94.1529 32.9978 92.5312 30.6577 92.3676 30.455C91.8092 29.7544 91.0944 29.068 90.28 29.068V28.876C90.28 28.876 90.7886 28.8831 91.4607 28.8688C92.6023 28.8404 93.9004 28.8297 94.4908 27.0977C94.5904 26.8097 94.6473 26.3758 94.6366 25.9241C94.5939 24.3807 93.5554 23.4738 91.8946 23.3884C90.7352 23.3315 89.7216 23.3813 89.526 23.3706V33.7731C89.5403 34.392 90.0346 34.8899 90.6961 34.8899H90.9735L90.977 35.0961H86.7627L86.7662 34.8899H87.0436C87.6945 34.8899 88.1888 34.4062 88.2137 33.8016V24.0108C88.1924 23.3991 87.698 22.9367 87.0436 22.9367H86.7662L86.7627 22.7305H91.9302Z" fill="#706F6F"/>
<path d="M112.774 28.9151C112.774 32.7453 109.666 35.3877 105.822 35.3877C101.977 35.3877 98.8652 32.7453 98.8652 28.9151C98.8652 25.0848 101.974 22.4424 105.822 22.4424C109.663 22.4424 112.774 25.0848 112.774 28.9151ZM111.249 28.9151C111.249 25.4298 108.852 23.0612 105.822 23.0612C102.788 23.0612 100.394 25.4298 100.394 28.9151C100.394 32.4003 102.792 34.7689 105.822 34.7689C108.852 34.7689 111.249 32.4003 111.249 28.9151Z" fill="#706F6F"/>
<path d="M124.12 32.1408L122.985 35.0961H114.613L114.617 34.8899H114.901C115.566 34.8899 116.068 34.4026 116.089 33.7945V24.0535C116.075 23.4346 115.531 22.9367 114.859 22.9367H114.617L114.613 22.7305H118.885L118.881 22.9367H118.639C117.967 22.9367 117.423 23.4346 117.409 24.0499V34.4666H120.634C122.612 34.4382 123.316 33.4744 123.903 32.1408H124.12Z" fill="#706F6F"/>
<path d="M125.161 35.0961L125.165 34.8899H125.439C126.207 34.8899 126.822 34.392 126.84 33.7731V24.0535C126.826 23.4346 126.207 22.9367 125.439 22.9367H125.165L125.161 22.7305H129.831V22.9367H129.553C128.803 22.9367 128.191 23.4169 128.156 24.0179V33.7909C128.181 34.4026 128.796 34.8899 129.553 34.8899H129.827L129.831 35.0961H125.161Z" fill="#706F6F"/>
<path d="M146.286 22.7303L146.282 22.9366H145.941C145.329 22.9366 144.831 23.3918 144.795 23.9679V32.7558C144.795 34.0824 144.991 35.384 144.991 35.384H144.795L134.076 25.2127V33.8121C134.087 34.4096 134.596 34.8897 135.225 34.8897H135.567L135.57 35.096H131.676L131.679 34.8897H132.024C132.65 34.8897 133.159 34.4096 133.173 33.8121V24.9957C133.173 23.5874 132.974 22.4209 132.974 22.4209L133.194 22.4316L143.889 32.5105V23.9644C143.853 23.3882 143.352 22.933 142.743 22.933H142.402L142.398 22.7268L146.286 22.7303Z" fill="#706F6F"/>
<path d="M148.143 35.0961L148.146 34.8899H148.42C149.188 34.8899 149.803 34.392 149.821 33.7731V24.0535C149.807 23.4346 149.188 22.9367 148.42 22.9367H148.146L148.143 22.7305H152.812V22.9367H152.535C151.784 22.9367 151.173 23.4169 151.137 24.0179V33.7909C151.162 34.4026 151.777 34.8899 152.535 34.8899H152.809L152.812 35.0961H148.143Z" fill="#706F6F"/>
<path d="M96.9692 5.36691C97.4671 4.69119 97.3355 3.80564 96.6562 3.28285C95.984 2.76361 95.1021 2.87741 94.5793 3.55313C94.0458 4.23952 94.1383 5.10018 94.8069 5.63719C95.4933 6.192 96.4535 6.07108 96.9692 5.36691ZM82.5443 8.5748C83.06 7.92042 82.964 6.96374 82.3345 6.45873C81.6872 5.93949 80.7519 6.03551 80.222 6.67922C79.6601 7.36206 79.7561 8.36852 80.4247 8.86998C81.072 9.35365 82.0393 9.21851 82.5443 8.5748ZM70.8473 9.11893C70.2996 9.76975 70.3565 10.698 70.9789 11.2421C71.6155 11.804 72.6326 11.7009 73.1696 11.0252C73.6853 10.3779 73.5928 9.43189 72.9598 8.90554C72.3303 8.38275 71.3879 8.47522 70.8473 9.11893ZM99.8676 2.92721C99.9957 2.10567 100.095 1.4833 100.191 0.857372C99.4942 3.84832 97.9472 6.27735 95.5751 8.18003C93.1887 10.1005 90.4076 10.8722 87.125 10.9185C89.8883 9.35365 91.3963 7.30871 91.0086 4.11149C90.0662 4.56316 89.1415 5.03616 88.4018 5.71188C86.9187 7.06687 86.3995 8.87354 86.4422 10.9149C80.9155 10.6909 76.1143 8.59613 71.2136 6.01773C74.5424 5.28511 76.7474 3.56025 77.8108 0.405705C74.7309 -0.277127 71.964 1.38728 69.5456 5.29934C68.525 4.90457 67.5043 4.4778 66.4587 4.11505C62.3652 2.68893 58.2078 1.73225 53.8298 2.44353C51.006 2.90231 48.5308 4.09371 46.3507 5.92882C45.9453 6.27024 45.5861 6.65078 45.9915 7.17001C46.4432 7.74971 46.909 7.45097 47.3323 7.06688C47.3572 7.04554 47.382 7.0242 47.4069 7.00286C50.6717 4.16128 54.5233 3.23661 58.7484 3.55669C59.4134 3.60648 60.0749 3.70606 60.7293 3.78074C60.4199 7.87062 62.3403 11.6511 64.8441 12.0459C65.6976 9.67729 65.3028 7.80305 63.1761 4.32843C68.3187 5.48071 72.7891 8.06979 77.5334 9.90845C76.9394 13.7636 78.5967 17.224 81.3103 17.8073C82.2634 15.1897 81.6019 12.8852 79.9019 10.7727C80.0442 10.7335 80.1082 10.698 80.1615 10.7086C80.5136 10.7762 80.8657 10.858 81.2178 10.9327C85.1263 11.772 89.0064 11.9996 92.8224 10.4419C93.0713 10.3423 93.5586 10.5095 93.7826 10.7158C95.5182 12.3446 97.5489 12.903 99.857 12.4442C100.337 12.3482 100.789 12.0957 101.329 11.8823C99.6756 9.75908 97.5738 9.15094 95.1127 9.28608C96.0232 8.36852 96.8625 7.63235 97.5667 6.78236C98.2708 5.93238 98.8363 4.96859 99.4587 4.06526C103.086 4.7232 106.458 3.36109 106.906 1.00674C104.206 0.138975 101.962 0.967621 99.8676 2.92721ZM67.5042 2.51822C68.0448 1.91363 67.9488 0.85737 67.3087 0.327464C66.7005 -0.173991 65.7047 -0.0886363 65.1855 0.508842C64.6449 1.13121 64.7374 2.17325 65.3846 2.6996C65.9963 3.19749 66.9708 3.1157 67.5042 2.51822ZM86.019 12.9883C85.5211 13.6818 85.6669 14.5425 86.3675 15.0546C87.0574 15.556 87.9465 15.428 88.4516 14.7523C88.9566 14.0801 88.8321 13.1839 88.1599 12.6647C87.4486 12.1099 86.5524 12.245 86.019 12.9883Z" fill="url(#paint0_linear)"/>
<defs>
<linearGradient id="paint0_linear" x1="45.9874" y1="10.3061" x2="107.198" y2="7.21092" gradientUnits="userSpaceOnUse">
<stop offset="0.0243" stop-color="#CC8362"/>
<stop offset="1" stop-color="#FCD7BA"/>
</linearGradient>
</defs>
</svg>
